<svg width="96" height="97" viewBox="0 0 96 97" fill="none" xmlns="http://www.w3.org/2000/svg">
<path d="M37.3661 75.4679L37.3479 75.4375H37.3125H15C13.4253 75.4375 11.9151 74.8119 10.8016 73.6984C9.68806 72.5849 9.0625 71.0747 9.0625 69.5V21.5C9.0625 19.9253 9.68806 18.4151 10.8016 17.3016C11.9151 16.1881 13.4253 15.5625 15 15.5625H81C82.5747 15.5625 84.085 16.1881 85.1984 17.3016C86.3119 18.4151 86.9375 19.9253 86.9375 21.5V69.5C86.9375 71.0747 86.3119 72.5849 85.1984 73.6984C84.085 74.8119 82.5747 75.4375 81 75.4375H58.6875H58.6521L58.6339 75.4679L53.084 84.7302C52.5556 85.6061 51.8099 86.3306 50.9192 86.8335C50.0284 87.3364 49.0229 87.6006 48 87.6006C46.9771 87.6006 45.9716 87.3364 45.0808 86.8335C44.1901 86.3306 43.4444 85.6061 42.916 84.7302L37.3661 75.4679ZM27.4652 49.2936C28.2155 49.7949 29.0976 50.0625 30 50.0625C31.2101 50.0625 32.3705 49.5818 33.2262 48.7262C34.0818 47.8705 34.5625 46.7101 34.5625 45.5C34.5625 44.5976 34.2949 43.7155 33.7936 42.9652C33.2922 42.2149 32.5797 41.6301 31.746 41.2848C30.9123 40.9395 29.9949 40.8491 29.1099 41.0252C28.2249 41.2012 27.4119 41.6357 26.7738 42.2738C26.1357 42.9119 25.7012 43.7249 25.5252 44.6099C25.3491 45.4949 25.4395 46.4123 25.7848 47.246C26.1301 48.0797 26.7149 48.7922 27.4652 49.2936ZM45.4652 49.2936C46.2155 49.7949 47.0976 50.0625 48 50.0625C49.21 50.0625 50.3705 49.5818 51.2262 48.7262C52.0818 47.8705 52.5625 46.7101 52.5625 45.5C52.5625 44.5976 52.2949 43.7155 51.7936 42.9652C51.2922 42.2149 50.5797 41.6301 49.746 41.2848C48.9123 40.9395 47.9949 40.8491 47.1099 41.0252C46.2249 41.2012 45.4119 41.6357 44.7738 42.2738C44.1357 42.9119 43.7012 43.7249 43.5252 44.6099C43.3491 45.4949 43.4395 46.4123 43.7848 47.246C44.1301 48.0797 44.7149 48.7922 45.4652 49.2936ZM63.4652 49.2936C64.2155 49.7949 65.0976 50.0625 66 50.0625C67.21 50.0625 68.3705 49.5818 69.2262 48.7262C70.0818 47.8705 70.5625 46.7101 70.5625 45.5C70.5625 44.5976 70.2949 43.7155 69.7936 42.9652C69.2922 42.2149 68.5797 41.6301 67.746 41.2848C66.9123 40.9395 65.9949 40.8491 65.1099 41.0252C64.2249 41.2012 63.4119 41.6357 62.7738 42.2738C62.1357 42.9119 61.7012 43.7249 61.5252 44.6099C61.3491 45.4949 61.4395 46.4123 61.7848 47.246C62.1301 48.0797 62.7149 48.7922 63.4652 49.2936Z" fill="#18181B" stroke="#18181B" stroke-width="0.125"/>
</svg>
