<svg width="20" height="20" viewBox="0 0 20 20" fill="none" xmlns="http://www.w3.org/2000/svg">
<path d="M10.2525 10C10.2525 10.1395 10.1395 10.2525 10 10.2525C9.86055 10.2525 9.7475 10.1395 9.7475 10C9.7475 9.86055 9.86055 9.7475 10 9.7475C10.1395 9.7475 10.2525 9.86055 10.2525 10Z" fill="#18181B" stroke="#18181B" stroke-width="1.995"/>
<path d="M5.2525 10C5.2525 10.1395 5.13945 10.2525 5 10.2525C4.86055 10.2525 4.7475 10.1395 4.7475 10C4.7475 9.86055 4.86055 9.7475 5 9.7475C5.13945 9.7475 5.2525 9.86055 5.2525 10Z" fill="#18181B" stroke="#18181B" stroke-width="1.995"/>
<path d="M15 11.25C15.6904 11.25 16.25 10.6904 16.25 10C16.25 9.30964 15.6904 8.75 15 8.75C14.3096 8.75 13.75 9.30964 13.75 10C13.75 10.6904 14.3096 11.25 15 11.25Z" fill="#18181B"/>
</svg>
