<svg width="97" height="96" viewBox="0 0 97 96" fill="none" xmlns="http://www.w3.org/2000/svg">
<path d="M65 63L72.5 81L80 63" stroke="#18181B" stroke-width="2" stroke-linecap="round" stroke-linejoin="round"/>
<path d="M30.5 78.9375C29.0647 80.2496 27.1946 80.9843 25.25 81C20.675 81 17 76.9875 17 72C17 67.0125 20.675 63 25.25 63C27.1946 63.0157 29.0647 63.7504 30.5 65.0625" stroke="#18181B" stroke-width="2" stroke-linecap="round" stroke-linejoin="round"/>
<path d="M42.5 79.5C44.1253 80.7123 46.0974 81.3696 48.125 81.375C51.5 81.375 54.5 80.25 54.5 76.5C54.5 70.5 42.5 73.125 42.5 67.5C42.5 64.5 44.75 62.625 48.125 62.625C50.1526 62.6304 52.1247 63.2877 53.75 64.5" stroke="#18181B" stroke-width="2" stroke-linecap="round" stroke-linejoin="round"/>
<path d="M18.5 48V15C18.5 14.2044 18.8161 13.4413 19.3787 12.8787C19.9413 12.3161 20.7044 12 21.5 12H57.5L78.5 33V48" stroke="#18181B" stroke-width="2" stroke-linecap="round" stroke-linejoin="round"/>
<path d="M57.5 12V33H78.5" stroke="#18181B" stroke-width="2" stroke-linecap="round" stroke-linejoin="round"/>
</svg>
