<svg width="36" height="36" viewBox="0 0 36 36" fill="none" xmlns="http://www.w3.org/2000/svg">
<path d="M18 25.5C22.1421 25.5 25.5 22.1421 25.5 18C25.5 13.8579 22.1421 10.5 18 10.5C13.8579 10.5 10.5 13.8579 10.5 18C10.5 22.1421 13.8579 25.5 18 25.5Z" stroke="#18181B" stroke-width="1.5" stroke-linecap="round" stroke-linejoin="round"/>
<path d="M17.375 17.375H18V21.75H18.625" fill="#18181B"/>
<path d="M17.375 17.375H18V21.75H18.625" stroke="#18181B" stroke-width="1.5" stroke-linecap="round" stroke-linejoin="round"/>
<path d="M17.8438 15.3438C18.2752 15.3438 18.625 14.994 18.625 14.5625C18.625 14.131 18.2752 13.7812 17.8438 13.7812C17.4123 13.7812 17.0625 14.131 17.0625 14.5625C17.0625 14.994 17.4123 15.3438 17.8438 15.3438Z" fill="#18181B"/>
</svg>
