<svg width="96" height="96" viewBox="0 0 96 96" fill="none" xmlns="http://www.w3.org/2000/svg">
<path d="M34.6875 46.8C37.7746 53.1751 42.9295 58.3168 49.3125 61.3875C49.7833 61.6104 50.3041 61.7069 50.8236 61.6675C51.343 61.628 51.8432 61.454 52.275 61.1625L61.65 54.9C62.0642 54.6191 62.5428 54.4477 63.0412 54.4018C63.5396 54.3558 64.0414 54.437 64.5 54.6375L82.05 62.175C82.6498 62.4246 83.1509 62.8645 83.4762 63.427C83.8014 63.9894 83.9328 64.6431 83.85 65.2875C83.2938 69.629 81.1746 73.6191 77.8892 76.5112C74.6037 79.4032 70.377 80.999 66 81C52.474 81 39.5019 75.6268 29.9376 66.0624C20.3732 56.4981 15 43.526 15 30C15.001 25.623 16.5968 21.3963 19.4888 18.1108C22.3809 14.8254 26.371 12.7062 30.7125 12.15C31.3569 12.0672 32.0106 12.1986 32.573 12.5238C33.1355 12.8491 33.5754 13.3502 33.825 13.95L41.3625 31.5375C41.5585 31.9888 41.6405 32.4814 41.6013 32.9719C41.562 33.4623 41.4028 33.9356 41.1375 34.35L34.875 43.875C34.5962 44.3058 34.4325 44.8009 34.3997 45.313C34.3669 45.8252 34.466 46.3371 34.6875 46.8V46.8Z" stroke="#18181B" stroke-width="2" stroke-linecap="round" stroke-linejoin="round"/>
<path d="M60 21V36H75" stroke="#18181B" stroke-width="2" stroke-linecap="round" stroke-linejoin="round"/>
<path d="M60 36L78 18" stroke="#18181B" stroke-width="2" stroke-linecap="round" stroke-linejoin="round"/>
</svg>
