<svg width="97" height="96" viewBox="0 0 97 96" fill="none" xmlns="http://www.w3.org/2000/svg">
<path d="M48.4023 60C56.6866 60 63.4023 53.2843 63.4023 45C63.4023 36.7157 56.6866 30 48.4023 30C40.1181 30 33.4023 36.7157 33.4023 45C33.4023 53.2843 40.1181 60 48.4023 60Z" stroke="#18181B" stroke-width="2" stroke-linecap="round" stroke-linejoin="round"/>
<path d="M24.3281 74.775C26.5853 70.3291 30.0295 66.595 34.2789 63.9867C38.5283 61.3784 43.417 59.9977 48.4031 59.9977C53.3892 59.9977 58.2779 61.3784 62.5273 63.9867C66.7768 66.595 70.221 70.3291 72.4781 74.775" stroke="#18181B" stroke-width="2" stroke-linecap="round" stroke-linejoin="round"/>
<path d="M75.4023 48L84.4023 57L93.4023 48" stroke="#18181B" stroke-width="2" stroke-linecap="round" stroke-linejoin="round"/>
<path d="M3.40234 48L12.4023 39L21.4023 48" stroke="#18181B" stroke-width="2" stroke-linecap="round" stroke-linejoin="round"/>
<path d="M84.4031 57V48C84.4116 40.222 81.9008 32.6504 77.2465 26.4187C72.5923 20.1869 66.0449 15.6301 58.5844 13.4304C51.1239 11.2307 43.1517 11.5063 35.861 14.2161C28.5703 16.9259 22.3533 21.9241 18.1406 28.4625" stroke="#18181B" stroke-width="2" stroke-linecap="round" stroke-linejoin="round"/>
<path d="M12.4024 39V48C12.3939 55.778 14.9047 63.3495 19.559 69.5813C24.2132 75.8131 30.7606 80.3699 38.2211 82.5696C45.6815 84.7693 53.6538 84.4936 60.9445 81.7838C68.2352 79.074 74.4522 74.0759 78.6649 67.5375" stroke="#18181B" stroke-width="2" stroke-linecap="round" stroke-linejoin="round"/>
</svg>
