<svg width="96" height="96" viewBox="0 0 96 96" fill="none" xmlns="http://www.w3.org/2000/svg">
<g clip-path="url(#clip0_2621_64222)">
<rect width="96" height="96" fill="white" style="mix-blend-mode:multiply"/>
<path d="M65.2236 28.4704C59.9779 25.4888 54.0373 23.9467 48.0036 24.0004C47.6843 23.9636 47.3608 23.9948 47.0543 24.0918C46.7479 24.1888 46.4654 24.3495 46.2254 24.5634C45.9855 24.7773 45.7934 25.0395 45.662 25.3329C45.5305 25.6262 45.4625 25.944 45.4625 26.2654C45.4625 26.5869 45.5305 26.9047 45.662 27.198C45.7934 27.4914 45.9855 27.7536 46.2254 27.9675C46.4654 28.1814 46.7479 28.3421 47.0543 28.4391C47.3608 28.5361 47.6843 28.5673 48.0036 28.5305C49.9292 28.5588 51.8478 28.7697 53.7336 29.1604C46.9536 32.4005 39.4536 39.9004 33.5436 50.1604C31.0672 54.3701 29.0554 58.8363 27.5436 63.4804C24.4555 60.116 22.2135 56.0641 21.0036 51.6604C20.602 50.3419 20.4694 48.956 20.6137 47.5852C20.758 46.2144 21.1763 44.8865 21.8436 43.6805C24.2136 39.5704 29.1636 37.2304 35.7336 37.0804C36.0331 37.0727 36.328 37.006 36.6017 36.8841C36.8753 36.7623 37.1223 36.5878 37.3285 36.3705C37.5346 36.1531 37.696 35.8973 37.8032 35.6177C37.9105 35.338 37.9616 35.0399 37.9536 34.7404C37.9498 34.4398 37.8858 34.1429 37.7654 33.8674C37.645 33.5919 37.4705 33.3433 37.2524 33.1363C37.0342 32.9294 36.7768 32.7683 36.4953 32.6625C36.2139 32.5567 35.9141 32.5084 35.6136 32.5205C27.5736 32.6404 21.3036 35.7604 18.0036 41.2205C17.0247 42.9273 16.4029 44.8153 16.1759 46.7699C15.949 48.7244 16.1217 50.7047 16.6836 52.5905C18.4757 58.5527 21.7833 63.9484 26.2836 68.2505C25.5763 71.449 25.3338 74.7327 25.5636 78.0004C22.8786 74.9617 20.8375 71.4102 19.5636 67.5605C19.4846 67.2674 19.3471 66.9933 19.1594 66.7547C18.9717 66.5162 18.7377 66.3181 18.4715 66.1723C18.2052 66.0266 17.9122 65.9362 17.6101 65.9067C17.308 65.8772 17.0031 65.909 16.7136 66.0005C16.4134 66.091 16.1352 66.2425 15.8962 66.4455C15.6572 66.6484 15.4627 66.8985 15.3247 67.18C15.1868 67.4616 15.1083 67.7686 15.0944 68.0818C15.0804 68.395 15.1312 68.7077 15.2436 69.0005C17.8767 77.0836 23.4136 83.9032 30.7836 88.1404C36.0153 91.1732 41.9565 92.7672 48.0036 92.7604C51.0415 92.7602 54.0666 92.367 57.0036 91.5904C63.5579 89.8118 69.4401 86.1349 73.9104 81.0223C78.3808 75.9097 81.2398 69.5895 82.1279 62.8564C83.016 56.1233 81.8936 49.278 78.9019 43.181C75.9101 37.0841 71.1826 32.0078 65.3136 28.5905L65.2236 28.4704ZM55.7436 87.1804C51.9526 88.2046 47.9961 88.4668 44.1032 87.9518C40.2102 87.4369 36.458 86.155 33.0636 84.1804C30.4836 82.7104 29.4336 78.1804 30.2436 72.1804C32.5817 74.0965 35.0697 75.8221 37.6836 77.3404C43.9661 81.1323 51.1368 83.2018 58.4736 83.3404C60.9172 83.3301 63.3522 83.0484 65.7336 82.5004C62.7295 84.6781 59.3396 86.2662 55.7436 87.1804ZM73.9236 73.2004C67.9236 79.2004 53.9436 81.4204 39.9636 73.3504C36.8619 71.5353 33.9564 69.4039 31.2936 66.9904C32.7417 61.8361 34.8385 56.8865 37.5336 52.2605C46.3536 37.0205 58.0236 29.5505 62.9436 32.4005C69.7851 36.378 74.7779 42.8978 76.8345 50.5396C78.891 58.1815 77.8448 66.3264 73.9236 73.2004Z" fill="#18181B"/>
<path d="M12.4836 35.1604L3.42361 30.0005C3.16495 29.8194 2.8715 29.694 2.56184 29.6322C2.25219 29.5705 1.93308 29.5737 1.62474 29.6417C1.3164 29.7097 1.02556 29.8411 0.770627 30.0274C0.515699 30.2137 0.302247 30.4509 0.143797 30.724C-0.0146527 30.9972 -0.114647 31.3002 -0.149849 31.614C-0.185051 31.9278 -0.154694 32.2454 -0.0607006 32.5469C0.0332924 32.8483 0.188872 33.127 0.396181 33.3651C0.603489 33.6033 0.858006 33.7958 1.14361 33.9305L10.2036 39.0005C10.5554 39.1871 10.9455 39.2898 11.3436 39.3005C11.7442 39.2984 12.1373 39.1922 12.4844 38.9924C12.8315 38.7925 13.1207 38.5058 13.3236 38.1604C13.5903 37.6471 13.6519 37.0516 13.4959 36.4946C13.3399 35.9376 12.9781 35.4607 12.4836 35.1604Z" fill="#18181B"/>
<path d="M24.8736 22.7704C25.0549 23.1344 25.3326 23.4415 25.6764 23.6584C26.0203 23.8753 26.4171 23.9936 26.8236 24.0004C27.2235 24.0035 27.617 23.9 27.9636 23.7004C28.4581 23.4002 28.8199 22.9233 28.9759 22.3663C29.1319 21.8093 29.0703 21.2138 28.8036 20.7004L23.5836 11.7004C23.2786 11.2111 22.7996 10.8555 22.243 10.7052C21.6863 10.5549 21.0934 10.6211 20.5836 10.8904C20.0836 11.1855 19.717 11.6625 19.5604 12.2216C19.4039 12.7807 19.4695 13.3786 19.7436 13.8904L24.8736 22.7704Z" fill="#18181B"/>
<path d="M48.0036 18.2404C48.6083 18.2404 49.1882 18.0002 49.6158 17.5727C50.0434 17.1451 50.2836 16.5651 50.2836 15.9604V5.49045C50.2836 4.88576 50.0434 4.30583 49.6158 3.87825C49.1882 3.45066 48.6083 3.21045 48.0036 3.21045C47.3989 3.21045 46.819 3.45066 46.3914 3.87825C45.9638 4.30583 45.7236 4.88576 45.7236 5.49045V15.9604C45.7236 16.5651 45.9638 17.1451 46.3914 17.5727C46.819 18.0002 47.3989 18.2404 48.0036 18.2404Z" fill="#18181B"/>
<path d="M68.0436 23.6105C68.5554 23.8846 69.1534 23.9502 69.7125 23.7936C70.2716 23.6371 70.7485 23.2705 71.0436 22.7705L76.2936 13.7704C76.5677 13.2586 76.6333 12.6607 76.4768 12.1016C76.3203 11.5425 75.9536 11.0655 75.4536 10.7704C74.9438 10.5011 74.3509 10.4349 73.7942 10.5852C73.2376 10.7355 72.7586 11.0911 72.4536 11.5804L67.2336 20.5804C66.9553 21.0932 66.8842 21.6932 67.0348 22.2568C67.1855 22.8205 67.5465 23.3049 68.0436 23.6105Z" fill="#18181B"/>
<path d="M95.7036 30.7504C95.3986 30.2611 94.9196 29.9055 94.363 29.7552C93.8063 29.6049 93.2134 29.6711 92.7036 29.9404L83.7036 35.1604C83.2091 35.4607 82.8473 35.9376 82.6913 36.4946C82.5353 37.0516 82.5969 37.6471 82.8636 38.1604C83.0665 38.5058 83.3557 38.7925 83.7028 38.9924C84.0499 39.1922 84.4431 39.2984 84.8436 39.3004C85.2417 39.2898 85.6319 39.1871 85.9836 39.0004L94.9836 33.7504C95.4577 33.4316 95.7947 32.9463 95.9281 32.3907C96.0614 31.8351 95.9813 31.2498 95.7036 30.7504Z" fill="#18181B"/>
</g>
<defs>
<clipPath id="clip0_2621_64222">
<rect width="96" height="96" fill="white"/>
</clipPath>
</defs>
</svg>
